# xmcd
#
# Track frame offsets: 
#        150
#        11208
#        24030
#        38645
#        52809
#        64871
#        79948
#        93346
#        107399
#        120742
#        134405
#        150165
#        163626
#        177453
#        189300
#        202969
#        216478
#        229869
#
# Disc length: 3238 seconds
#
# Revision: 1
# Processed by: cddbd v1.5.2PL0 Copyright (c) Steve Scherf et al.
# Submitted via: ExactAudioCopy v0.99pb5
#
DISCID=e20ca412
DTITLE=Coleman Hawkins - Discovery Of Jazz - Cd 1
DYEAR=1900
DGENRE=Jazz
TTITLE0=Carioca
TTITLE1=A Pretty Girl Is Like A Melody
TTITLE2=Bu-Dee-Daht
TTITLE3=April In Paris
TTITLE4=Cattin' At Keynote
TTITLE5=Bah-U-Bah
TTITLE6=(It's No) Sin
TTITLE7=Dismal Dan
TTITLE8=A Shanty In Old Shanty Town
TTITLE9=Chicago
TTITLE10=Down Georgia Way
TTITLE11=Avalon
TTITLE12=Bean Soup
TTITLE13='s Wonderful
TTITLE14=Drifting On A Reed
TTITLE15=Bean At The Met
TTITLE16=Disorder At The Border
TTITLE17=Way Down Yonder In New Orleans
EXTD=
EXTT0=
EXTT1=
EXTT2=
EXTT3=
EXTT4=
EXTT5=
EXTT6=
EXTT7=
EXTT8=
EXTT9=
EXTT10=
EXTT11=
EXTT12=
EXTT13=
EXTT14=
EXTT15=
EXTT16=
EXTT17=
PLAYORDER=
